<?xml version="1.0" standalone="no"?>
<!DOCTYPE svg PUBLIC "-//W3C//DTD SVG 20010904//EN"
 "http://www.w3.org/TR/2001/REC-SVG-20010904/DTD/svg10.dtd">
<svg version="1.0" xmlns="http://www.w3.org/2000/svg"
 width="602.000000pt" height="518.000000pt" viewBox="0 0 602.000000 518.000000"
 preserveAspectRatio="xMidYMid meet">
<metadata>
Created by potrace 1.10, written by Peter Selinger 2001-2011
</metadata>
<g transform="translate(0.000000,518.000000) scale(0.100000,-0.100000)"
fill="#000000" stroke="none">
<path d="M5940 5136 c17 -24 41 -68 55 -97 l25 -54 0 98 0 97 -55 0 -54 0 29
-44z"/>
<path d="M1740 4663 c-26 -4 -280 -62 -385 -88 -33 -8 -123 -28 -200 -45 -77
-17 -176 -39 -220 -50 -44 -10 -132 -30 -195 -45 -151 -34 -221 -60 -300 -111
-171 -110 -270 -294 -270 -501 0 -84 9 -133 66 -377 81 -343 110 -471 129
-556 8 -36 26 -114 40 -175 50 -208 158 -680 165 -720 4 -22 12 -58 18 -80 6
-22 23 -92 37 -155 14 -63 32 -142 40 -175 24 -104 63 -274 100 -440 68 -305
78 -340 111 -414 19 -41 54 -98 78 -127 45 -56 143 -144 159 -144 5 0 21 -9
36 -19 100 -71 318 -87 516 -37 118 29 177 43 325 76 52 12 140 32 195 45 55
13 168 40 250 60 206 49 257 63 309 86 42 18 115 69 159 109 10 10 26 16 35
14 9 -2 94 -11 187 -19 94 -8 233 -22 310 -30 77 -8 239 -24 360 -35 120 -11
260 -25 310 -30 49 -5 117 -12 150 -15 33 -3 98 -10 145 -15 47 -5 139 -14
205 -20 142 -13 275 -26 405 -39 383 -41 434 -39 496 16 63 56 70 93 109 543
8 102 20 223 25 270 13 125 27 273 56 580 13 151 27 298 29 325 3 28 10 102
15 165 6 63 15 160 20 215 6 55 19 197 30 315 11 118 22 238 25 265 9 88 8
149 -4 175 -46 98 -79 116 -258 135 -76 8 -177 20 -224 25 -47 6 -104 10 -127
10 -22 0 -43 3 -46 8 -2 4 2 75 10 157 37 373 39 354 -53 402 -180 96 -558
159 -1114 188 -157 8 -395 -10 -464 -36 -84 -31 -84 -32 -106 -251 -10 -106
-19 -215 -19 -242 l0 -49 -82 7 c-46 3 -184 16 -308 28 l-225 21 -40 34 c-39
34 -131 68 -209 79 -86 11 -80 5 -105 111 -54 224 -97 310 -207 414 -125 118
-340 188 -494 162z m27 -368 c22 -88 21 -90 -49 -106 -35 -8 -67 -14 -72 -14
-10 0 -48 136 -41 144 8 7 110 30 129 28 15 -2 23 -15 33 -52z m2488 4 c457
-39 865 -135 865 -204 0 -20 -18 -19 -71 4 -134 59 -490 121 -874 152 -189 15
-539 7 -608 -14 -43 -14 -49 -14 -54 0 -9 24 35 51 102 61 86 14 487 14 640 1z
m-2950 -60 c13 -20 34 -124 27 -131 -10 -9 -133 -40 -139 -34 -9 8 -35 137
-29 143 4 4 95 27 128 32 4 1 10 -4 13 -10z m-428 -159 c7 -36 11 -70 9 -76
-2 -6 -22 -14 -43 -17 -21 -4 -52 -9 -69 -13 l-32 -6 -16 72 c-9 40 -15 74
-14 76 6 6 123 32 137 30 9 0 19 -25 28 -66z m3493 46 c389 -48 650 -109 721
-170 28 -23 14 -39 -19 -22 -268 136 -1228 226 -1551 145 -8 -2 -16 3 -18 12
-5 21 32 36 117 48 98 15 592 6 750 -13z m-610 -91 c0 -4 -7 -19 -15 -35 -15
-29 -35 -206 -35 -312 l0 -58 -32 4 c-18 2 -72 7 -121 11 -48 4 -90 11 -92 16
-3 4 1 73 10 153 8 80 15 153 15 161 0 9 16 23 35 31 46 19 235 42 235 29z
m574 -81 c383 -38 463 -48 474 -62 10 -12 12 -37 8 -89 -18 -220 -19 -225 -40
-248 l-21 -23 -125 14 c-158 17 -384 39 -615 59 -99 9 -190 18 -202 20 -24 5
-48 62 -39 92 3 10 8 56 11 103 6 77 20 153 32 173 7 11 29 10 517 -39z
m-2140 -136 c47 -206 82 -353 140 -593 25 -104 55 -233 66 -285 12 -52 36
-160 55 -240 19 -80 46 -194 60 -255 14 -60 35 -150 45 -200 11 -49 40 -180
65 -290 25 -110 59 -261 76 -335 16 -74 32 -143 35 -152 7 -22 -17 -32 -124
-54 -43 -8 -140 -30 -217 -49 -77 -18 -221 -52 -320 -75 -99 -23 -216 -50
-260 -60 -44 -11 -109 -26 -145 -34 -36 -8 -103 -24 -150 -35 -140 -33 -353
-81 -385 -87 l-31 -6 -48 209 c-26 114 -56 244 -66 288 -16 69 -81 349 -135
580 -9 39 -31 133 -49 210 -19 77 -46 192 -60 255 -15 63 -72 309 -127 545
-56 237 -102 434 -102 439 -2 8 341 92 673 165 47 10 144 32 215 49 72 17 213
49 315 72 102 24 237 55 300 70 63 16 120 29 126 29 5 1 27 -72 48 -161z m414
75 c62 -16 92 -35 73 -47 -5 -4 -45 -9 -88 -13 -85 -6 -95 -2 -106 48 -11 44
-7 44 121 12z m2401 -12 c35 -14 69 -33 74 -42 7 -12 7 -63 -2 -165 -7 -82
-15 -155 -17 -162 -2 -9 -22 -11 -76 -7 -125 10 -141 14 -132 33 13 31 35 266
30 325 l-4 58 31 -6 c18 -4 61 -19 96 -34z m-1924 -141 c116 -11 232 -23 258
-26 l48 -6 -3 -57 c-3 -53 -4 -56 -28 -54 -344 26 -573 52 -582 66 -8 11 -1
83 9 100 3 4 23 5 46 2 23 -3 137 -14 252 -25z m-375 11 c0 -22 -163 -50 -175
-31 -4 6 -5 13 -3 15 3 3 102 17 166 24 6 0 12 -3 12 -8z m195 -247 c143 -13
350 -34 460 -45 110 -11 245 -24 300 -29 55 -5 190 -18 300 -29 189 -19 1027
-102 1365 -136 222 -22 303 -32 322 -40 25 -10 46 -65 42 -110 -7 -92 -25
-287 -34 -375 -13 -126 -48 -488 -55 -570 -7 -77 -9 -95 -35 -350 -31 -302
-78 -798 -96 -1009 -6 -72 -11 -88 -34 -114 -23 -26 -34 -30 -71 -29 -52 2
-593 53 -864 82 -104 11 -246 25 -315 30 -69 6 -138 12 -155 15 -43 6 -694 69
-962 92 -40 3 -73 8 -73 11 0 2 9 19 20 37 31 50 58 137 70 223 10 75 3 153
-29 310 -4 23 -7 42 -5 42 2 0 13 -19 25 -42 110 -216 351 -436 579 -528 30
-12 64 -26 75 -30 141 -58 374 -81 559 -55 220 30 466 140 605 269 22 20 35
27 38 18 3 -6 9 -9 15 -6 7 4 7 9 -1 13 -6 4 18 36 59 79 156 164 265 386 306
622 15 87 22 314 11 365 -3 11 -8 40 -12 65 -18 117 -90 305 -158 415 -127
206 -294 355 -517 462 -304 146 -688 148 -995 4 -305 -143 -539 -404 -639
-713 -40 -121 -53 -193 -64 -343 l-7 -100 -17 75 c-27 124 -127 552 -138 590
-36 128 -115 484 -116 529 -3 76 -13 122 -34 151 -19 27 -61 170 -54 182 2 3
19 5 37 2 17 -3 149 -16 292 -30z m2407 15 c353 -36 360 -37 381 -60 22 -23
37 -109 19 -109 -6 0 -23 5 -39 11 -24 9 -186 28 -471 54 -69 7 -73 9 -68 29
3 11 6 36 6 54 0 30 2 32 35 32 19 0 81 -5 137 -11z m-971 -428 c209 -44 360
-123 512 -270 212 -205 319 -460 318 -761 -1 -135 -31 -291 -71 -370 -11 -21
-20 -45 -20 -51 0 -22 -112 -192 -166 -254 -30 -33 -79 -80 -110 -105 -31 -25
-61 -50 -67 -55 -37 -33 -237 -134 -267 -135 -9 0 -20 -4 -25 -9 -18 -18 -225
-51 -315 -51 -155 0 -334 45 -483 122 -181 93 -351 272 -447 469 -153 317
-128 712 66 1015 151 237 396 404 674 459 102 20 292 18 401 -4z m-1183 -509
c-12 -23 -23 -40 -26 -38 -2 3 6 23 19 45 12 23 24 39 26 37 2 -2 -6 -22 -19
-44z m-47 -105 c-102 -223 -103 -569 -3 -827 18 -44 18 -50 4 -31 -48 67 -102
310 -102 459 0 82 30 248 61 332 27 75 50 123 56 117 2 -3 -5 -25 -16 -50z
m2135 -583 c-17 -98 -60 -243 -78 -259 -13 -12 -9 6 20 85 27 74 49 185 59
300 8 95 8 95 11 30 2 -36 -4 -106 -12 -156z m-103 -326 c-74 -134 -153 -234
-265 -334 -58 -53 -138 -111 -138 -100 0 1 30 27 68 57 144 115 257 253 328
399 9 19 19 30 21 23 2 -6 -4 -26 -14 -45z m-1973 -40 c0 -12 85 -135 125
-183 22 -26 73 -76 113 -111 40 -35 69 -64 64 -64 -20 0 -163 136 -222 211
-58 71 -110 158 -110 181 0 12 29 -21 30 -34z m365 -394 c17 -14 21 -21 10
-15 -30 14 -61 40 -50 41 6 0 24 -12 40 -26z m1175 -19 c0 -2 -10 -9 -22 -15
-22 -11 -22 -10 -4 4 21 17 26 19 26 11z m-135 -75 c-3 -5 -14 -10 -23 -10
-15 0 -15 2 -2 10 20 13 33 13 25 0z m-2196 -72 c7 -32 12 -61 11 -65 -1 -10
-23 -16 -170 -48 -63 -14 -160 -36 -215 -50 -178 -42 -330 -78 -338 -79 -11
-1 -47 133 -38 138 3 2 74 20 156 40 407 96 571 133 576 127 3 -3 11 -32 18
-63z"/>
<path d="M3870 3970 c-19 -4 -26 -13 -28 -36 -2 -18 3 -36 12 -43 8 -7 81 -19
163 -27 176 -16 310 -30 492 -50 163 -17 243 -18 259 -2 18 18 15 65 -5 73
-28 11 -44 13 -448 50 -209 19 -389 36 -400 38 -11 2 -31 0 -45 -3z m192 -39
c10 -9 -130 -1 -167 10 -20 5 2 7 65 3 52 -3 98 -9 102 -13z m173 -16 l110
-14 -95 5 c-52 3 -113 9 -135 14 -65 13 -1 10 120 -5z m-25 -31 c289 -28 334
-33 328 -40 -8 -7 -638 53 -647 62 -9 8 57 4 319 -22z m253 9 c3 -5 -16 -7
-41 -5 -73 5 -82 10 -20 11 31 0 59 -2 61 -6z m187 -24 c15 -9 -45 -3 -130 12
-32 6 -21 6 35 3 44 -4 87 -10 95 -15z m78 -6 c-10 -2 -28 -2 -40 0 -13 2 -5
4 17 4 22 1 32 -1 23 -4z m-23 -34 c20 -5 6 -6 -40 -2 -38 3 -79 9 -90 13 -26
11 91 1 130 -11z"/>
<path d="M3834 3836 c-8 -35 4 -65 29 -71 12 -2 78 -9 147 -14 158 -13 410
-40 430 -46 26 -8 -107 2 -352 26 -260 25 -268 24 -268 -32 0 -21 6 -32 23
-38 12 -4 121 -18 242 -30 121 -11 311 -31 423 -43 228 -24 252 -21 252 31 0
39 -14 48 -95 59 l-70 10 71 -2 c78 -1 104 11 104 49 0 12 -6 27 -12 33 -13
10 -793 92 -877 92 -35 0 -41 -3 -47 -24z m241 -16 c110 -11 282 -28 383 -37
100 -10 182 -21 182 -26 0 -5 -10 -7 -22 -4 -13 3 -79 11 -148 17 -69 6 -183
17 -255 25 -71 8 -170 17 -220 21 -49 3 -98 10 -110 14 -27 12 -34 12 190 -10z
m153 -52 c182 -18 332 -35 332 -38 0 -3 -33 -3 -72 1 -40 5 -194 19 -342 33
-148 14 -271 28 -274 31 -8 8 4 7 356 -27z m465 -15 c-7 -2 -19 -2 -25 0 -7 3
-2 5 12 5 14 0 19 -2 13 -5z m-594 -48 c79 -8 147 -18 150 -21 3 -4 -19 -4
-49 -1 -30 4 -121 12 -202 19 -81 6 -144 16 -142 20 3 5 27 6 52 3 26 -3 112
-12 191 -20z m576 16 c35 -8 36 -9 10 -9 -16 0 -50 3 -75 7 -42 8 -43 9 -10 9
19 1 53 -3 75 -7z m-117 -28 c-15 -2 -42 -2 -60 0 -18 2 -6 4 27 4 33 0 48 -2
33 -4z m-428 -29 c79 -8 147 -18 150 -21 3 -3 -22 -3 -55 0 -33 3 -124 11
-202 18 -79 7 -143 17 -143 21 0 9 17 7 250 -18z m248 9 c-16 -2 -40 -2 -55 0
-16 2 -3 4 27 4 30 0 43 -2 28 -4z m152 -13 c16 -5 2 -6 -35 -3 -33 3 -62 7
-64 9 -8 7 74 2 99 -6z m90 -10 c20 -6 21 -8 5 -8 -11 0 -29 3 -40 8 -25 11 1
11 35 0z m-142 -21 c67 -7 120 -14 118 -16 -8 -9 -295 20 -290 29 3 4 15 6 27
4 12 -3 77 -10 145 -17z m199 15 c-3 -3 -12 -4 -19 -1 -8 3 -5 6 6 6 11 1 17
-2 13 -5z m10 -40 c-3 -3 -12 -4 -19 -1 -8 3 -5 6 6 6 11 1 17 -2 13 -5z"/>
<path d="M1665 3469 c-159 -15 -300 -28 -312 -28 -25 -1 -24 2 -113 -326 -29
-104 -81 -293 -117 -420 -80 -284 -92 -329 -88 -333 1 -1 99 31 216 72 118 41
241 83 274 95 33 11 111 38 173 60 61 23 112 37 112 32 0 -7 -59 -149 -105
-256 -8 -16 -23 -55 -35 -85 -12 -30 -27 -68 -35 -85 -20 -47 -86 -204 -110
-265 -13 -30 -44 -102 -70 -160 -48 -107 -70 -174 -54 -164 5 3 29 35 53 72
45 68 166 238 184 258 10 11 93 125 182 249 25 35 92 127 150 205 162 219 220
301 220 309 0 9 -42 24 -165 56 -55 15 -149 42 -210 60 -60 19 -147 44 -192
56 -46 11 -83 25 -83 31 0 5 51 73 112 151 135 170 149 187 337 418 l24 29
-29 -1 c-16 -1 -159 -14 -319 -30z"/>
<path d="M2835 3423 c-104 -56 -114 -217 -19 -289 64 -49 180 -40 229 18 25
30 45 85 45 128 0 40 -42 113 -79 137 -41 28 -130 31 -176 6z m127 -102 c19
-18 12 -68 -13 -81 -44 -24 -98 16 -84 61 11 33 70 46 97 20z"/>
<path d="M5040 1210 c0 -5 5 -10 11 -10 5 0 7 5 4 10 -3 6 -8 10 -11 10 -2 0
-4 -4 -4 -10z"/>
<path d="M3370 1071 c0 -5 5 -13 10 -16 6 -3 10 -2 10 4 0 5 -4 13 -10 16 -5
3 -10 2 -10 -4z"/>
<path d="M3280 1060 c0 -5 7 -10 15 -10 8 0 15 5 15 10 0 6 -7 10 -15 10 -8 0
-15 -4 -15 -10z"/>
<path d="M4862 1046 c7 -8 15 -12 17 -11 5 6 -10 25 -20 25 -5 0 -4 -6 3 -14z"/>
<path d="M4922 1048 c-16 -16 -15 -28 3 -28 8 0 15 9 15 20 0 23 -2 24 -18 8z"/>
<path d="M3370 1041 c-23 -6 -23 -8 -6 -14 22 -9 56 0 56 14 0 10 -13 10 -50
0z"/>
<path d="M4830 1030 c8 -5 20 -10 25 -10 6 0 3 5 -5 10 -8 5 -19 10 -25 10 -5
0 -3 -5 5 -10z"/>
<path d="M4538 892 c-19 -4 -25 -21 -8 -23 33 -4 70 -3 70 2 0 10 -44 25 -62
21z m22 -12 c0 -5 -5 -10 -11 -10 -5 0 -7 5 -4 10 3 6 8 10 11 10 2 0 4 -4 4
-10z"/>
<path d="M4621 884 c6 -8 8 -14 5 -14 -4 0 0 -7 9 -16 12 -13 18 -14 30 -4 19
16 5 36 -30 43 -20 3 -23 2 -14 -9z"/>
<path d="M3756 859 c3 -5 17 -9 31 -9 32 0 24 11 -11 14 -14 2 -23 -1 -20 -5z"/>
<path d="M4465 860 c-13 -5 -14 -9 -5 -9 8 0 24 4 35 9 13 5 14 9 5 9 -8 0
-24 -4 -35 -9z"/>
<path d="M4465 831 c-3 -5 -1 -12 5 -16 5 -3 10 1 10 9 0 18 -6 21 -15 7z"/>
<path d="M4705 830 c3 -5 8 -10 11 -10 2 0 4 5 4 10 0 6 -5 10 -11 10 -5 0 -7
-4 -4 -10z"/>
<path d="M3980 2735 c-83 -23 -130 -43 -188 -76 -60 -36 -222 -191 -222 -214
0 -7 -4 -15 -8 -17 -16 -6 -63 -118 -83 -196 -31 -120 -26 -283 12 -387 55
-149 171 -298 276 -352 15 -8 30 -17 33 -21 16 -22 116 -58 215 -78 96 -19
162 -18 269 7 236 55 427 227 507 459 19 55 23 86 23 205 0 128 -2 147 -28
225 -72 216 -257 386 -483 444 -74 19 -258 20 -323 1z m304 -51 c190 -49 329
-162 418 -339 58 -115 77 -309 43 -431 -21 -74 -65 -174 -76 -174 -5 0 -9 -7
-9 -15 0 -26 -126 -149 -196 -191 -214 -126 -476 -122 -674 10 -296 196 -367
619 -153 907 61 82 127 135 233 189 112 57 289 76 414 44z"/>
<path d="M4054 2630 c-219 -31 -406 -204 -464 -431 -55 -210 21 -435 192 -576
101 -82 208 -120 350 -122 194 -4 378 97 490 269 113 172 111 433 -4 605 -79
117 -148 174 -273 226 -71 29 -199 42 -291 29z m221 -47 c142 -37 269 -141
337 -278 104 -207 63 -443 -106 -610 -71 -70 -80 -76 -167 -114 -149 -65 -319
-53 -481 35 -44 24 -156 144 -184 198 -91 173 -85 379 17 541 41 66 130 148
199 184 134 69 239 81 385 44z"/>
<path d="M3999 2500 c-33 -14 -52 -52 -40 -83 44 -115 404 -216 528 -149 35
19 39 57 12 97 -25 36 -115 87 -214 120 -59 20 -248 30 -286 15z m236 -46
c132 -26 282 -125 235 -154 -73 -45 -310 4 -434 89 -65 45 -61 67 14 82 39 8
81 4 185 -17z"/>
<path d="M4448 1893 c6 -2 18 -2 25 0 6 3 1 5 -13 5 -14 0 -19 -2 -12 -5z"/>
<path d="M4500 1730 c0 -5 5 -10 10 -10 6 0 10 5 10 10 0 6 -4 10 -10 10 -5 0
-10 -4 -10 -10z"/>
<path d="M4348 1643 c7 -3 16 -2 19 1 4 3 -2 6 -13 5 -11 0 -14 -3 -6 -6z"/>
<path d="M4348 1613 c7 -3 16 -2 19 1 4 3 -2 6 -13 5 -11 0 -14 -3 -6 -6z"/>
<path d="M4143 1563 c9 -2 25 -2 35 0 9 3 1 5 -18 5 -19 0 -27 -2 -17 -5z"/>
<path d="M4520 1620 c-9 -6 -10 -10 -3 -10 6 0 15 5 18 10 8 12 4 12 -15 0z"/>
<path d="M4470 1579 c0 -5 5 -7 10 -4 6 3 10 8 10 11 0 2 -4 4 -10 4 -5 0 -10
-5 -10 -11z"/>
<path d="M4400 1540 c-8 -5 -10 -10 -5 -10 6 0 17 5 25 10 8 5 11 10 5 10 -5
0 -17 -5 -25 -10z"/>
<path d="M4028 1483 c7 -3 16 -2 19 1 4 3 -2 6 -13 5 -11 0 -14 -3 -6 -6z"/>
<path d="M4770 1746 c0 -2 7 -7 16 -10 8 -3 12 -2 9 4 -6 10 -25 14 -25 6z"/>
<path d="M4880 1635 c0 -14 5 -25 10 -25 6 0 10 11 10 25 0 14 -4 25 -10 25
-5 0 -10 -11 -10 -25z"/>
<path d="M4980 1620 c0 -19 3 -21 12 -12 9 9 9 15 0 24 -9 9 -12 7 -12 -12z"/>
<path d="M4986 1545 c-3 -8 -1 -15 4 -15 6 0 10 7 10 15 0 8 -2 15 -4 15 -2 0
-6 -7 -10 -15z"/>
<path d="M4900 1540 c0 -5 5 -10 10 -10 6 0 10 5 10 10 0 6 -4 10 -10 10 -5 0
-10 -4 -10 -10z"/>
<path d="M4581 1519 c-13 -10 -19 -19 -15 -19 13 1 48 29 43 34 -2 2 -15 -4
-28 -15z"/>
<path d="M4720 1485 c0 -8 5 -15 10 -15 6 0 10 7 10 15 0 8 -4 15 -10 15 -5 0
-10 -7 -10 -15z"/>
<path d="M4545 1480 c-3 -5 -1 -10 4 -10 6 0 11 5 11 10 0 6 -2 10 -4 10 -3 0
-8 -4 -11 -10z"/>
<path d="M4896 1474 c-4 -9 -4 -19 -1 -22 2 -3 7 3 11 12 4 9 4 19 1 22 -2 3
-7 -3 -11 -12z"/>
<path d="M4747 1464 c-19 -19 -6 -42 27 -46 19 -2 32 0 30 4 -3 4 -14 8 -25 8
-11 0 -17 5 -14 10 4 6 16 9 28 8 12 -2 24 2 27 7 6 11 -62 20 -73 9z"/>
<path d="M4385 1400 c3 -5 8 -10 11 -10 2 0 4 5 4 10 0 6 -5 10 -11 10 -5 0
-7 -4 -4 -10z"/>
<path d="M4628 1393 c-10 -2 -18 -8 -18 -12 0 -11 39 -41 53 -41 6 0 3 8 -8
16 -14 11 -16 18 -7 21 6 3 12 9 12 14 0 9 -4 10 -32 2z"/>
<path d="M4288 1373 c7 -3 16 -2 19 1 4 3 -2 6 -13 5 -11 0 -14 -3 -6 -6z"/>
<path d="M4223 1363 c-13 -2 -23 -9 -23 -15 0 -5 7 -7 16 -4 9 3 22 6 30 6 8
0 14 5 14 10 0 6 -3 9 -7 9 -5 -1 -18 -4 -30 -6z"/>
<path d="M4450 1351 c12 -24 30 -36 30 -22 0 6 9 11 21 11 36 0 14 25 -25 28
-34 2 -36 1 -26 -17z"/>
<path d="M4713 1356 c19 -19 40 -21 35 -3 -3 6 -15 14 -28 15 -21 4 -22 2 -7
-12z"/>
<path d="M4797 1351 c-3 -15 1 -18 19 -17 27 1 29 7 12 24 -17 17 -25 15 -31
-7z"/>
<path d="M4333 1333 c9 -2 25 -2 35 0 9 3 1 5 -18 5 -19 0 -27 -2 -17 -5z"/>
<path d="M3495 1320 c3 -5 8 -10 11 -10 2 0 4 5 4 10 0 6 -5 10 -11 10 -5 0
-7 -4 -4 -10z"/>
<path d="M4756 1315 c10 -8 25 -15 33 -15 11 0 9 4 -5 15 -10 8 -25 15 -33 15
-11 0 -9 -4 5 -15z"/>
<path d="M3890 1310 c0 -5 7 -10 15 -10 8 0 15 5 15 10 0 6 -7 10 -15 10 -8 0
-15 -4 -15 -10z"/>
<path d="M4640 1305 c0 -17 -16 -20 -25 -5 -3 6 -10 10 -15 10 -14 0 -32 -69
-28 -106 3 -28 1 -34 -14 -34 -15 0 -18 8 -18 45 0 42 -2 45 -25 45 -14 0 -35
-9 -47 -20 l-22 -20 21 -19 c25 -23 95 -46 117 -38 18 7 21 38 6 53 -7 7 -4
16 10 29 19 18 20 18 20 -1 0 -10 8 -28 17 -39 14 -17 15 -18 9 -2 -5 15 -2
17 17 12 l22 -6 -22 20 c-26 22 -30 51 -9 51 21 0 31 21 15 31 -20 13 -29 11
-29 -6z"/>
<path d="M4733 1275 c-7 -8 -9 -16 -4 -19 5 -3 12 1 15 10 8 22 4 25 -11 9z"/>
<path d="M4653 1253 c9 -14 47 -24 47 -12 0 5 -4 9 -9 9 -5 0 -17 3 -27 7 -11
4 -15 3 -11 -4z"/>
<path d="M3688 1213 c6 -2 18 -2 25 0 6 3 1 5 -13 5 -14 0 -19 -2 -12 -5z"/>
<path d="M3855 1200 c-8 -13 -1 -24 14 -19 6 3 7 10 2 18 -6 10 -10 10 -16 1z"/>
<path d="M4438 1173 c7 -3 16 -2 19 1 4 3 -2 6 -13 5 -11 0 -14 -3 -6 -6z"/>
<path d="M4500 1140 c0 -5 7 -7 15 -4 8 4 15 8 15 10 0 2 -7 4 -15 4 -8 0 -15
-4 -15 -10z"/>
<path d="M4335 1090 c-3 -5 1 -10 9 -10 9 0 16 5 16 10 0 6 -4 10 -9 10 -6 0
-13 -4 -16 -10z"/>
<path d="M4713 568 c16 -10 85 -10 90 0 3 4 -19 7 -48 7 -29 0 -48 -3 -42 -7z"/>
<path d="M4480 561 c0 -6 -19 -12 -42 -14 l-43 -4 41 -1 c27 -1 46 3 54 13 9
10 9 15 1 15 -6 0 -11 -4 -11 -9z"/>
<path d="M4898 553 c7 -3 16 -2 19 1 4 3 -2 6 -13 5 -11 0 -14 -3 -6 -6z"/>
<path d="M4598 543 c7 -3 16 -2 19 1 4 3 -2 6 -13 5 -11 0 -14 -3 -6 -6z"/>
<path d="M5031 474 c0 -11 3 -14 6 -6 3 7 2 16 -1 19 -3 4 -6 -2 -5 -13z"/>
<path d="M5160 260 c0 -5 5 -10 10 -10 6 0 10 5 10 10 0 6 -4 10 -10 10 -5 0
-10 -4 -10 -10z"/>
</g>
</svg>
